<?xml version="1.0" encoding="UTF-8"?>
<svg id="Layer_2" xmlns="http://www.w3.org/2000/svg" viewBox="0 0 1004.68 165.95">
  <defs>
    <style>
      .cls-1 {
        fill: none;
      }
    </style>
  </defs>
  <polygon points="262.94 9.48 248.27 65.48 221.88 65.48 236.94 9.48 189.94 9.48 151.94 154.48 197.94 154.48 216.5 85.48 243.02 85.48 224.94 154.48 270.94 154.48 309.94 9.48 262.94 9.48"/>
  <polygon points="334.94 154.48 288.94 154.48 326.94 9.48 373.94 9.48 334.94 154.48"/>
  <g>
    <path class="cls-1" d="M426.07,79.98s15.87,1.5,24.37-23.46c0,0,10.09-27.04-7.71-28.54h-9.27l-13.99,52.01h6.59Z"/>
    <path d="M414.77,97.48h29.17c27.95-.67,42.61-19.93,49.3-32.74,3.87-7.41,5.74-15.7,5.27-24.05-1.83-32.82-31.57-31.21-31.57-31.21h-75.5l-38,145h46M450.44,56.52c-8.5,24.96-24.37,23.46-24.37,23.46h-6.59s13.99-52,13.99-52h9.27c17.79,1.5,7.71,28.54,7.71,28.54Z"/>
  </g>
  <polygon points="646.94 154.48 600.94 154.48 638.94 9.48 685.94 9.48 646.94 154.48"/>
  <polygon points="806.94 9.48 774.94 9.48 723.94 9.48 688.94 9.48 684.94 29.48 718.7 29.48 685.94 154.48 735.94 154.48 769.56 29.48 802.94 29.48 806.94 9.48"/>
  <polygon points="818.94 154.48 772.94 154.48 810.94 9.48 857.94 9.48 818.94 154.48"/>
  <path d="M835.96,153.7l37.28-143.75c.07-.28.32-.47.6-.47h29.18c.25,0,.48.15.58.39l34.65,84.93c.22.55,1.02.5,1.18-.07l23.69-84.79c.08-.27.32-.46.6-.46h18.9c.41,0,.71.39.6.78l-37.89,143.75c-.07.27-.32.46-.6.46h-34.71c-.26,0-.48-.16-.58-.39l-29.99-75.36c-.3-.75-1.03-1.25-1.84-1.25h0c-.97,0-1.82.66-2.05,1.61l-18.58,74.92c-.07.28-.32.47-.61.47h-19.8c-.41,0-.71-.39-.6-.78Z"/>
  <g>
    <path class="cls-1" d="M550.07,79.98s15.87,1.5,24.37-23.46c0,0,10.09-27.04-7.71-28.54h-9.27l-13.99,52.01h6.59Z"/>
    <path d="M538.77,97.48h29.17c27.95-.67,42.61-19.93,49.3-32.74,3.87-7.41,5.74-15.7,5.27-24.05-1.83-32.82-31.57-31.21-31.57-31.21h-75.5l-38,145h46M574.44,56.52c-8.5,24.96-24.37,23.46-24.37,23.46h-6.59s13.99-52,13.99-52h9.27c17.79,1.5,7.71,28.54,7.71,28.54Z"/>
  </g>
  <path d="M25.62,100.61c.17-.23.34-.45.52-.67,2.56-3.19,6.52-4.96,10.61-4.96h.11c4.7,0,9.15,2.29,11.64,6.25,1.19,1.9,2.15,4.29,2.44,7.25,0,0,1,13,12.88,16.04,2.04.52,4.11.96,6.22.96h8.6c3.75,0,7.46-1.05,10.52-3.23,3.64-2.59,5.92-6.34-3.22-9.77,0,0-23.99-6.31-37.86-20.94-5.31-5.6-8.14-13.1-8.14-20.81v-9.7c0-5.89,1.51-11.67,4.42-16.79,6.21-10.9,19.51-28.19,43.22-33.4,4.41-.97,8.94-1.36,13.46-1.36h15.79c4.59,0,9.15.67,13.55,1.95,3.89,1.13,9.18,2.14,13.57,1.05,0,0,3.34-1.11,7.53-1.31,5.46-.25,10.71,2.46,13.6,7.09,3.37,5.4,6.62,14.91,3.4,29.91-.36,1.67-1.01,3.26-1.93,4.7-.07.11-.14.22-.21.33-3.4,5.2-9.25,8.27-15.46,8.27-.7,0-1.16,0-1.16,0-3.59,0-6.72-1.61-8.7-4.32-6.17-8.46-21.15-25.49-35.38-15.05-1.84,1.35-3.01,3.51-2.78,5.78.32,3.2,3.28,7.35,15.09,9.6,0,0,27,5,36,22,0,0,7,18-3,38,0,0-6.79,19.14-32.5,31.22-11.19,5.26-23.46,7.78-35.82,7.78h-27.56s-11.77.11-21.45-4.72c-7.57-3.78-12.18-11.69-12.18-20.14,0-5.16,0-13.08,0-17.77s1.37-9.42,4.17-13.23Z"/>
</svg>